<?xml version="1.0" encoding="utf-8" standalone="no"?>
<!DOCTYPE svg PUBLIC "-//W3C//DTD SVG 1.1//EN"
  "http://www.w3.org/Graphics/SVG/1.1/DTD/svg11.dtd">
<svg height="345.6pt" version="1.1" viewBox="0 0 460.8 345.6" width="460.8pt" xmlns="http://www.w3.org/2000/svg" xmlns:xlink="http://www.w3.org/1999/xlink">
 <metadata>
  <rdf:RDF xmlns:cc="http://creativecommons.org/ns#" xmlns:dc="http://purl.org/dc/elements/1.1/" xmlns:rdf="http://www.w3.org/1999/02/22-rdf-syntax-ns#">
   <cc:Work>
    <dc:type rdf:resource="http://purl.org/dc/dcmitype/StillImage"/>
    <dc:date>2021-11-11T21:29:36.798624</dc:date>
    <dc:format>image/svg+xml</dc:format>
    <dc:creator>
     <cc:Agent>
      <dc:title>Matplotlib v3.4.2, https://matplotlib.org/</dc:title>
     </cc:Agent>
    </dc:creator>
   </cc:Work>
  </rdf:RDF>
 </metadata>
 <defs>
  <style type="text/css">*{stroke-linecap:butt;stroke-linejoin:round;}</style>
 </defs>
 <g id="figure_1">
  <g id="patch_1">
   <path d="M 0 345.6 
L 460.8 345.6 
L 460.8 0 
L 0 0 
z
" style="fill:#ffffff;"/>
  </g>
  <g id="axes_1">
   <g id="patch_2">
    <path d="M 57.6 307.584 
L 414.72 307.584 
L 414.72 41.472 
L 57.6 41.472 
z
" style="fill:#ffffff;"/>
   </g>
   <g id="matplotlib.axis_1">
    <g id="xtick_1">
     <g id="line2d_1">
      <path clip-path="url(#p7e6306a0eb)" d="M 71.276392 307.584 
L 71.276392 41.472 
" style="fill:none;stroke:#b0b0b0;stroke-linecap:square;stroke-width:0.8;"/>
     </g>
     <g id="line2d_2">
      <defs>
       <path d="M 0 0 
L 0 3.5 
" id="m0d039d3a38" style="stroke:#000000;stroke-width:0.8;"/>
      </defs>
      <g>
       <use style="stroke:#000000;stroke-width:0.8;" x="71.276392" xlink:href="#m0d039d3a38" y="307.584"/>
      </g>
     </g>
     <g id="text_1">
      <!-- 0 -->
      <g transform="translate(68.095142 322.182437)scale(0.1 -0.1)">
       <defs>
        <path d="M 2034 4250 
Q 1547 4250 1301 3770 
Q 1056 3291 1056 2328 
Q 1056 1369 1301 889 
Q 1547 409 2034 409 
Q 2525 409 2770 889 
Q 3016 1369 3016 2328 
Q 3016 3291 2770 3770 
Q 2525 4250 2034 4250 
z
M 2034 4750 
Q 2819 4750 3233 4129 
Q 3647 3509 3647 2328 
Q 3647 1150 3233 529 
Q 2819 -91 2034 -91 
Q 1250 -91 836 529 
Q 422 1150 422 2328 
Q 422 3509 836 4129 
Q 1250 4750 2034 4750 
z
" id="DejaVuSans-30" transform="scale(0.015625)"/>
       </defs>
       <use xlink:href="#DejaVuSans-30"/>
      </g>
     </g>
    </g>
    <g id="xtick_2">
     <g id="line2d_3">
      <path clip-path="url(#p7e6306a0eb)" d="M 122.403092 307.584 
L 122.403092 41.472 
" style="fill:none;stroke:#b0b0b0;stroke-linecap:square;stroke-width:0.8;"/>
     </g>
     <g id="line2d_4">
      <g>
       <use style="stroke:#000000;stroke-width:0.8;" x="122.403092" xlink:href="#m0d039d3a38" y="307.584"/>
      </g>
     </g>
     <g id="text_2">
      <!-- 20 -->
      <g transform="translate(116.040592 322.182437)scale(0.1 -0.1)">
       <defs>
        <path d="M 1228 531 
L 3431 531 
L 3431 0 
L 469 0 
L 469 531 
Q 828 903 1448 1529 
Q 2069 2156 2228 2338 
Q 2531 2678 2651 2914 
Q 2772 3150 2772 3378 
Q 2772 3750 2511 3984 
Q 2250 4219 1831 4219 
Q 1534 4219 1204 4116 
Q 875 4013 500 3803 
L 500 4441 
Q 881 4594 1212 4672 
Q 1544 4750 1819 4750 
Q 2544 4750 2975 4387 
Q 3406 4025 3406 3419 
Q 3406 3131 3298 2873 
Q 3191 2616 2906 2266 
Q 2828 2175 2409 1742 
Q 1991 1309 1228 531 
z
" id="DejaVuSans-32" transform="scale(0.015625)"/>
       </defs>
       <use xlink:href="#DejaVuSans-32"/>
       <use x="63.623047" xlink:href="#DejaVuSans-30"/>
      </g>
     </g>
    </g>
    <g id="xtick_3">
     <g id="line2d_5">
      <path clip-path="url(#p7e6306a0eb)" d="M 173.529792 307.584 
L 173.529792 41.472 
" style="fill:none;stroke:#b0b0b0;stroke-linecap:square;stroke-width:0.8;"/>
     </g>
     <g id="line2d_6">
      <g>
       <use style="stroke:#000000;stroke-width:0.8;" x="173.529792" xlink:href="#m0d039d3a38" y="307.584"/>
      </g>
     </g>
     <g id="text_3">
      <!-- 40 -->
      <g transform="translate(167.167292 322.182437)scale(0.1 -0.1)">
       <defs>
        <path d="M 2419 4116 
L 825 1625 
L 2419 1625 
L 2419 4116 
z
M 2253 4666 
L 3047 4666 
L 3047 1625 
L 3713 1625 
L 3713 1100 
L 3047 1100 
L 3047 0 
L 2419 0 
L 2419 1100 
L 313 1100 
L 313 1709 
L 2253 4666 
z
" id="DejaVuSans-34" transform="scale(0.015625)"/>
       </defs>
       <use xlink:href="#DejaVuSans-34"/>
       <use x="63.623047" xlink:href="#DejaVuSans-30"/>
      </g>
     </g>
    </g>
    <g id="xtick_4">
     <g id="line2d_7">
      <path clip-path="url(#p7e6306a0eb)" d="M 224.656492 307.584 
L 224.656492 41.472 
" style="fill:none;stroke:#b0b0b0;stroke-linecap:square;stroke-width:0.8;"/>
     </g>
     <g id="line2d_8">
      <g>
       <use style="stroke:#000000;stroke-width:0.8;" x="224.656492" xlink:href="#m0d039d3a38" y="307.584"/>
      </g>
     </g>
     <g id="text_4">
      <!-- 60 -->
      <g transform="translate(218.293992 322.182437)scale(0.1 -0.1)">
       <defs>
        <path d="M 2113 2584 
Q 1688 2584 1439 2293 
Q 1191 2003 1191 1497 
Q 1191 994 1439 701 
Q 1688 409 2113 409 
Q 2538 409 2786 701 
Q 3034 994 3034 1497 
Q 3034 2003 2786 2293 
Q 2538 2584 2113 2584 
z
M 3366 4563 
L 3366 3988 
Q 3128 4100 2886 4159 
Q 2644 4219 2406 4219 
Q 1781 4219 1451 3797 
Q 1122 3375 1075 2522 
Q 1259 2794 1537 2939 
Q 1816 3084 2150 3084 
Q 2853 3084 3261 2657 
Q 3669 2231 3669 1497 
Q 3669 778 3244 343 
Q 2819 -91 2113 -91 
Q 1303 -91 875 529 
Q 447 1150 447 2328 
Q 447 3434 972 4092 
Q 1497 4750 2381 4750 
Q 2619 4750 2861 4703 
Q 3103 4656 3366 4563 
z
" id="DejaVuSans-36" transform="scale(0.015625)"/>
       </defs>
       <use xlink:href="#DejaVuSans-36"/>
       <use x="63.623047" xlink:href="#DejaVuSans-30"/>
      </g>
     </g>
    </g>
    <g id="xtick_5">
     <g id="line2d_9">
      <path clip-path="url(#p7e6306a0eb)" d="M 275.783193 307.584 
L 275.783193 41.472 
" style="fill:none;stroke:#b0b0b0;stroke-linecap:square;stroke-width:0.8;"/>
     </g>
     <g id="line2d_10">
      <g>
       <use style="stroke:#000000;stroke-width:0.8;" x="275.783193" xlink:href="#m0d039d3a38" y="307.584"/>
      </g>
     </g>
     <g id="text_5">
      <!-- 80 -->
      <g transform="translate(269.420693 322.182437)scale(0.1 -0.1)">
       <defs>
        <path d="M 2034 2216 
Q 1584 2216 1326 1975 
Q 1069 1734 1069 1313 
Q 1069 891 1326 650 
Q 1584 409 2034 409 
Q 2484 409 2743 651 
Q 3003 894 3003 1313 
Q 3003 1734 2745 1975 
Q 2488 2216 2034 2216 
z
M 1403 2484 
Q 997 2584 770 2862 
Q 544 3141 544 3541 
Q 544 4100 942 4425 
Q 1341 4750 2034 4750 
Q 2731 4750 3128 4425 
Q 3525 4100 3525 3541 
Q 3525 3141 3298 2862 
Q 3072 2584 2669 2484 
Q 3125 2378 3379 2068 
Q 3634 1759 3634 1313 
Q 3634 634 3220 271 
Q 2806 -91 2034 -91 
Q 1263 -91 848 271 
Q 434 634 434 1313 
Q 434 1759 690 2068 
Q 947 2378 1403 2484 
z
M 1172 3481 
Q 1172 3119 1398 2916 
Q 1625 2713 2034 2713 
Q 2441 2713 2670 2916 
Q 2900 3119 2900 3481 
Q 2900 3844 2670 4047 
Q 2441 4250 2034 4250 
Q 1625 4250 1398 4047 
Q 1172 3844 1172 3481 
z
" id="DejaVuSans-38" transform="scale(0.015625)"/>
       </defs>
       <use xlink:href="#DejaVuSans-38"/>
       <use x="63.623047" xlink:href="#DejaVuSans-30"/>
      </g>
     </g>
    </g>
    <g id="xtick_6">
     <g id="line2d_11">
      <path clip-path="url(#p7e6306a0eb)" d="M 326.909893 307.584 
L 326.909893 41.472 
" style="fill:none;stroke:#b0b0b0;stroke-linecap:square;stroke-width:0.8;"/>
     </g>
     <g id="line2d_12">
      <g>
       <use style="stroke:#000000;stroke-width:0.8;" x="326.909893" xlink:href="#m0d039d3a38" y="307.584"/>
      </g>
     </g>
     <g id="text_6">
      <!-- 100 -->
      <g transform="translate(317.366143 322.182437)scale(0.1 -0.1)">
       <defs>
        <path d="M 794 531 
L 1825 531 
L 1825 4091 
L 703 3866 
L 703 4441 
L 1819 4666 
L 2450 4666 
L 2450 531 
L 3481 531 
L 3481 0 
L 794 0 
L 794 531 
z
" id="DejaVuSans-31" transform="scale(0.015625)"/>
       </defs>
       <use xlink:href="#DejaVuSans-31"/>
       <use x="63.623047" xlink:href="#DejaVuSans-30"/>
       <use x="127.246094" xlink:href="#DejaVuSans-30"/>
      </g>
     </g>
    </g>
    <g id="xtick_7">
     <g id="line2d_13">
      <path clip-path="url(#p7e6306a0eb)" d="M 378.036593 307.584 
L 378.036593 41.472 
" style="fill:none;stroke:#b0b0b0;stroke-linecap:square;stroke-width:0.8;"/>
     </g>
     <g id="line2d_14">
      <g>
       <use style="stroke:#000000;stroke-width:0.8;" x="378.036593" xlink:href="#m0d039d3a38" y="307.584"/>
      </g>
     </g>
     <g id="text_7">
      <!-- 120 -->
      <g transform="translate(368.492843 322.182437)scale(0.1 -0.1)">
       <use xlink:href="#DejaVuSans-31"/>
       <use x="63.623047" xlink:href="#DejaVuSans-32"/>
       <use x="127.246094" xlink:href="#DejaVuSans-30"/>
      </g>
     </g>
    </g>
    <g id="text_8">
     <!-- Number of calls $n$ -->
     <g transform="translate(192.11 335.860562)scale(0.1 -0.1)">
      <defs>
       <path d="M 628 4666 
L 1478 4666 
L 3547 763 
L 3547 4666 
L 4159 4666 
L 4159 0 
L 3309 0 
L 1241 3903 
L 1241 0 
L 628 0 
L 628 4666 
z
" id="DejaVuSans-4e" transform="scale(0.015625)"/>
       <path d="M 544 1381 
L 544 3500 
L 1119 3500 
L 1119 1403 
Q 1119 906 1312 657 
Q 1506 409 1894 409 
Q 2359 409 2629 706 
Q 2900 1003 2900 1516 
L 2900 3500 
L 3475 3500 
L 3475 0 
L 2900 0 
L 2900 538 
Q 2691 219 2414 64 
Q 2138 -91 1772 -91 
Q 1169 -91 856 284 
Q 544 659 544 1381 
z
M 1991 3584 
L 1991 3584 
z
" id="DejaVuSans-75" transform="scale(0.015625)"/>
       <path d="M 3328 2828 
Q 3544 3216 3844 3400 
Q 4144 3584 4550 3584 
Q 5097 3584 5394 3201 
Q 5691 2819 5691 2113 
L 5691 0 
L 5113 0 
L 5113 2094 
Q 5113 2597 4934 2840 
Q 4756 3084 4391 3084 
Q 3944 3084 3684 2787 
Q 3425 2491 3425 1978 
L 3425 0 
L 2847 0 
L 2847 2094 
Q 2847 2600 2669 2842 
Q 2491 3084 2119 3084 
Q 1678 3084 1418 2786 
Q 1159 2488 1159 1978 
L 1159 0 
L 581 0 
L 581 3500 
L 1159 3500 
L 1159 2956 
Q 1356 3278 1631 3431 
Q 1906 3584 2284 3584 
Q 2666 3584 2933 3390 
Q 3200 3197 3328 2828 
z
" id="DejaVuSans-6d" transform="scale(0.015625)"/>
       <path d="M 3116 1747 
Q 3116 2381 2855 2742 
Q 2594 3103 2138 3103 
Q 1681 3103 1420 2742 
Q 1159 2381 1159 1747 
Q 1159 1113 1420 752 
Q 1681 391 2138 391 
Q 2594 391 2855 752 
Q 3116 1113 3116 1747 
z
M 1159 2969 
Q 1341 3281 1617 3432 
Q 1894 3584 2278 3584 
Q 2916 3584 3314 3078 
Q 3713 2572 3713 1747 
Q 3713 922 3314 415 
Q 2916 -91 2278 -91 
Q 1894 -91 1617 61 
Q 1341 213 1159 525 
L 1159 0 
L 581 0 
L 581 4863 
L 1159 4863 
L 1159 2969 
z
" id="DejaVuSans-62" transform="scale(0.015625)"/>
       <path d="M 3597 1894 
L 3597 1613 
L 953 1613 
Q 991 1019 1311 708 
Q 1631 397 2203 397 
Q 2534 397 2845 478 
Q 3156 559 3463 722 
L 3463 178 
Q 3153 47 2828 -22 
Q 2503 -91 2169 -91 
Q 1331 -91 842 396 
Q 353 884 353 1716 
Q 353 2575 817 3079 
Q 1281 3584 2069 3584 
Q 2775 3584 3186 3129 
Q 3597 2675 3597 1894 
z
M 3022 2063 
Q 3016 2534 2758 2815 
Q 2500 3097 2075 3097 
Q 1594 3097 1305 2825 
Q 1016 2553 972 2059 
L 3022 2063 
z
" id="DejaVuSans-65" transform="scale(0.015625)"/>
       <path d="M 2631 2963 
Q 2534 3019 2420 3045 
Q 2306 3072 2169 3072 
Q 1681 3072 1420 2755 
Q 1159 2438 1159 1844 
L 1159 0 
L 581 0 
L 581 3500 
L 1159 3500 
L 1159 2956 
Q 1341 3275 1631 3429 
Q 1922 3584 2338 3584 
Q 2397 3584 2469 3576 
Q 2541 3569 2628 3553 
L 2631 2963 
z
" id="DejaVuSans-72" transform="scale(0.015625)"/>
       <path id="DejaVuSans-20" transform="scale(0.015625)"/>
       <path d="M 1959 3097 
Q 1497 3097 1228 2736 
Q 959 2375 959 1747 
Q 959 1119 1226 758 
Q 1494 397 1959 397 
Q 2419 397 2687 759 
Q 2956 1122 2956 1747 
Q 2956 2369 2687 2733 
Q 2419 3097 1959 3097 
z
M 1959 3584 
Q 2709 3584 3137 3096 
Q 3566 2609 3566 1747 
Q 3566 888 3137 398 
Q 2709 -91 1959 -91 
Q 1206 -91 779 398 
Q 353 888 353 1747 
Q 353 2609 779 3096 
Q 1206 3584 1959 3584 
z
" id="DejaVuSans-6f" transform="scale(0.015625)"/>
       <path d="M 2375 4863 
L 2375 4384 
L 1825 4384 
Q 1516 4384 1395 4259 
Q 1275 4134 1275 3809 
L 1275 3500 
L 2222 3500 
L 2222 3053 
L 1275 3053 
L 1275 0 
L 697 0 
L 697 3053 
L 147 3053 
L 147 3500 
L 697 3500 
L 697 3744 
Q 697 4328 969 4595 
Q 1241 4863 1831 4863 
L 2375 4863 
z
" id="DejaVuSans-66" transform="scale(0.015625)"/>
       <path d="M 3122 3366 
L 3122 2828 
Q 2878 2963 2633 3030 
Q 2388 3097 2138 3097 
Q 1578 3097 1268 2742 
Q 959 2388 959 1747 
Q 959 1106 1268 751 
Q 1578 397 2138 397 
Q 2388 397 2633 464 
Q 2878 531 3122 666 
L 3122 134 
Q 2881 22 2623 -34 
Q 2366 -91 2075 -91 
Q 1284 -91 818 406 
Q 353 903 353 1747 
Q 353 2603 823 3093 
Q 1294 3584 2113 3584 
Q 2378 3584 2631 3529 
Q 2884 3475 3122 3366 
z
" id="DejaVuSans-63" transform="scale(0.015625)"/>
       <path d="M 2194 1759 
Q 1497 1759 1228 1600 
Q 959 1441 959 1056 
Q 959 750 1161 570 
Q 1363 391 1709 391 
Q 2188 391 2477 730 
Q 2766 1069 2766 1631 
L 2766 1759 
L 2194 1759 
z
M 3341 1997 
L 3341 0 
L 2766 0 
L 2766 531 
Q 2569 213 2275 61 
Q 1981 -91 1556 -91 
Q 1019 -91 701 211 
Q 384 513 384 1019 
Q 384 1609 779 1909 
Q 1175 2209 1959 2209 
L 2766 2209 
L 2766 2266 
Q 2766 2663 2505 2880 
Q 2244 3097 1772 3097 
Q 1472 3097 1187 3025 
Q 903 2953 641 2809 
L 641 3341 
Q 956 3463 1253 3523 
Q 1550 3584 1831 3584 
Q 2591 3584 2966 3190 
Q 3341 2797 3341 1997 
z
" id="DejaVuSans-61" transform="scale(0.015625)"/>
       <path d="M 603 4863 
L 1178 4863 
L 1178 0 
L 603 0 
L 603 4863 
z
" id="DejaVuSans-6c" transform="scale(0.015625)"/>
       <path d="M 2834 3397 
L 2834 2853 
Q 2591 2978 2328 3040 
Q 2066 3103 1784 3103 
Q 1356 3103 1142 2972 
Q 928 2841 928 2578 
Q 928 2378 1081 2264 
Q 1234 2150 1697 2047 
L 1894 2003 
Q 2506 1872 2764 1633 
Q 3022 1394 3022 966 
Q 3022 478 2636 193 
Q 2250 -91 1575 -91 
Q 1294 -91 989 -36 
Q 684 19 347 128 
L 347 722 
Q 666 556 975 473 
Q 1284 391 1588 391 
Q 1994 391 2212 530 
Q 2431 669 2431 922 
Q 2431 1156 2273 1281 
Q 2116 1406 1581 1522 
L 1381 1569 
Q 847 1681 609 1914 
Q 372 2147 372 2553 
Q 372 3047 722 3315 
Q 1072 3584 1716 3584 
Q 2034 3584 2315 3537 
Q 2597 3491 2834 3397 
z
" id="DejaVuSans-73" transform="scale(0.015625)"/>
       <path d="M 3566 2113 
L 3156 0 
L 2578 0 
L 2988 2091 
Q 3016 2238 3031 2350 
Q 3047 2463 3047 2528 
Q 3047 2791 2881 2937 
Q 2716 3084 2419 3084 
Q 1956 3084 1622 2776 
Q 1288 2469 1184 1941 
L 800 0 
L 225 0 
L 903 3500 
L 1478 3500 
L 1363 2950 
Q 1603 3253 1940 3418 
Q 2278 3584 2650 3584 
Q 3113 3584 3367 3334 
Q 3622 3084 3622 2631 
Q 3622 2519 3608 2391 
Q 3594 2263 3566 2113 
z
" id="DejaVuSans-Oblique-6e" transform="scale(0.015625)"/>
      </defs>
      <use transform="translate(0 0.015625)" xlink:href="#DejaVuSans-4e"/>
      <use transform="translate(74.804688 0.015625)" xlink:href="#DejaVuSans-75"/>
      <use transform="translate(138.183594 0.015625)" xlink:href="#DejaVuSans-6d"/>
      <use transform="translate(235.595703 0.015625)" xlink:href="#DejaVuSans-62"/>
      <use transform="translate(299.072266 0.015625)" xlink:href="#DejaVuSans-65"/>
      <use transform="translate(360.595703 0.015625)" xlink:href="#DejaVuSans-72"/>
      <use transform="translate(401.708984 0.015625)" xlink:href="#DejaVuSans-20"/>
      <use transform="translate(433.496094 0.015625)" xlink:href="#DejaVuSans-6f"/>
      <use transform="translate(494.677734 0.015625)" xlink:href="#DejaVuSans-66"/>
      <use transform="translate(529.882812 0.015625)" xlink:href="#DejaVuSans-20"/>
      <use transform="translate(561.669922 0.015625)" xlink:href="#DejaVuSans-63"/>
      <use transform="translate(616.650391 0.015625)" xlink:href="#DejaVuSans-61"/>
      <use transform="translate(677.929688 0.015625)" xlink:href="#DejaVuSans-6c"/>
      <use transform="translate(705.712891 0.015625)" xlink:href="#DejaVuSans-6c"/>
      <use transform="translate(733.496094 0.015625)" xlink:href="#DejaVuSans-73"/>
      <use transform="translate(785.595703 0.015625)" xlink:href="#DejaVuSans-20"/>
      <use transform="translate(817.382812 0.015625)" xlink:href="#DejaVuSans-Oblique-6e"/>
     </g>
    </g>
   </g>
   <g id="matplotlib.axis_2">
    <g id="ytick_1">
     <g id="line2d_15">
      <path clip-path="url(#p7e6306a0eb)" d="M 57.6 291.224977 
L 414.72 291.224977 
" style="fill:none;stroke:#b0b0b0;stroke-linecap:square;stroke-width:0.8;"/>
     </g>
     <g id="line2d_16">
      <defs>
       <path d="M 0 0 
L -3.5 0 
" id="m5430241732" style="stroke:#000000;stroke-width:0.8;"/>
      </defs>
      <g>
       <use style="stroke:#000000;stroke-width:0.8;" x="57.6" xlink:href="#m5430241732" y="291.224977"/>
      </g>
     </g>
     <g id="text_9">
      <!-- 0.5 -->
      <g transform="translate(34.696875 295.024196)scale(0.1 -0.1)">
       <defs>
        <path d="M 684 794 
L 1344 794 
L 1344 0 
L 684 0 
L 684 794 
z
" id="DejaVuSans-2e" transform="scale(0.015625)"/>
        <path d="M 691 4666 
L 3169 4666 
L 3169 4134 
L 1269 4134 
L 1269 2991 
Q 1406 3038 1543 3061 
Q 1681 3084 1819 3084 
Q 2600 3084 3056 2656 
Q 3513 2228 3513 1497 
Q 3513 744 3044 326 
Q 2575 -91 1722 -91 
Q 1428 -91 1123 -41 
Q 819 9 494 109 
L 494 744 
Q 775 591 1075 516 
Q 1375 441 1709 441 
Q 2250 441 2565 725 
Q 2881 1009 2881 1497 
Q 2881 1984 2565 2268 
Q 2250 2553 1709 2553 
Q 1456 2553 1204 2497 
Q 953 2441 691 2322 
L 691 4666 
z
" id="DejaVuSans-35" transform="scale(0.015625)"/>
       </defs>
       <use xlink:href="#DejaVuSans-30"/>
       <use x="63.623047" xlink:href="#DejaVuSans-2e"/>
       <use x="95.410156" xlink:href="#DejaVuSans-35"/>
      </g>
     </g>
    </g>
    <g id="ytick_2">
     <g id="line2d_17">
      <path clip-path="url(#p7e6306a0eb)" d="M 57.6 240.544017 
L 414.72 240.544017 
" style="fill:none;stroke:#b0b0b0;stroke-linecap:square;stroke-width:0.8;"/>
     </g>
     <g id="line2d_18">
      <g>
       <use style="stroke:#000000;stroke-width:0.8;" x="57.6" xlink:href="#m5430241732" y="240.544017"/>
      </g>
     </g>
     <g id="text_10">
      <!-- 1.0 -->
      <g transform="translate(34.696875 244.343236)scale(0.1 -0.1)">
       <use xlink:href="#DejaVuSans-31"/>
       <use x="63.623047" xlink:href="#DejaVuSans-2e"/>
       <use x="95.410156" xlink:href="#DejaVuSans-30"/>
      </g>
     </g>
    </g>
    <g id="ytick_3">
     <g id="line2d_19">
      <path clip-path="url(#p7e6306a0eb)" d="M 57.6 189.863057 
L 414.72 189.863057 
" style="fill:none;stroke:#b0b0b0;stroke-linecap:square;stroke-width:0.8;"/>
     </g>
     <g id="line2d_20">
      <g>
       <use style="stroke:#000000;stroke-width:0.8;" x="57.6" xlink:href="#m5430241732" y="189.863057"/>
      </g>
     </g>
     <g id="text_11">
      <!-- 1.5 -->
      <g transform="translate(34.696875 193.662276)scale(0.1 -0.1)">
       <use xlink:href="#DejaVuSans-31"/>
       <use x="63.623047" xlink:href="#DejaVuSans-2e"/>
       <use x="95.410156" xlink:href="#DejaVuSans-35"/>
      </g>
     </g>
    </g>
    <g id="ytick_4">
     <g id="line2d_21">
      <path clip-path="url(#p7e6306a0eb)" d="M 57.6 139.182098 
L 414.72 139.182098 
" style="fill:none;stroke:#b0b0b0;stroke-linecap:square;stroke-width:0.8;"/>
     </g>
     <g id="line2d_22">
      <g>
       <use style="stroke:#000000;stroke-width:0.8;" x="57.6" xlink:href="#m5430241732" y="139.182098"/>
      </g>
     </g>
     <g id="text_12">
      <!-- 2.0 -->
      <g transform="translate(34.696875 142.981316)scale(0.1 -0.1)">
       <use xlink:href="#DejaVuSans-32"/>
       <use x="63.623047" xlink:href="#DejaVuSans-2e"/>
       <use x="95.410156" xlink:href="#DejaVuSans-30"/>
      </g>
     </g>
    </g>
    <g id="ytick_5">
     <g id="line2d_23">
      <path clip-path="url(#p7e6306a0eb)" d="M 57.6 88.501138 
L 414.72 88.501138 
" style="fill:none;stroke:#b0b0b0;stroke-linecap:square;stroke-width:0.8;"/>
     </g>
     <g id="line2d_24">
      <g>
       <use style="stroke:#000000;stroke-width:0.8;" x="57.6" xlink:href="#m5430241732" y="88.501138"/>
      </g>
     </g>
     <g id="text_13">
      <!-- 2.5 -->
      <g transform="translate(34.696875 92.300357)scale(0.1 -0.1)">
       <use xlink:href="#DejaVuSans-32"/>
       <use x="63.623047" xlink:href="#DejaVuSans-2e"/>
       <use x="95.410156" xlink:href="#DejaVuSans-35"/>
      </g>
     </g>
    </g>
    <g id="text_14">
     <!-- $\min f(x)$ after $n$ calls -->
     <g transform="translate(28.617187 223.628)rotate(-90)scale(0.1 -0.1)">
      <defs>
       <path d="M 603 3500 
L 1178 3500 
L 1178 0 
L 603 0 
L 603 3500 
z
M 603 4863 
L 1178 4863 
L 1178 4134 
L 603 4134 
L 603 4863 
z
" id="DejaVuSans-69" transform="scale(0.015625)"/>
       <path d="M 3513 2113 
L 3513 0 
L 2938 0 
L 2938 2094 
Q 2938 2591 2744 2837 
Q 2550 3084 2163 3084 
Q 1697 3084 1428 2787 
Q 1159 2491 1159 1978 
L 1159 0 
L 581 0 
L 581 3500 
L 1159 3500 
L 1159 2956 
Q 1366 3272 1645 3428 
Q 1925 3584 2291 3584 
Q 2894 3584 3203 3211 
Q 3513 2838 3513 2113 
z
" id="DejaVuSans-6e" transform="scale(0.015625)"/>
       <path d="M 3059 4863 
L 2969 4384 
L 2419 4384 
Q 2106 4384 1964 4261 
Q 1822 4138 1753 3809 
L 1691 3500 
L 2638 3500 
L 2553 3053 
L 1606 3053 
L 1013 0 
L 434 0 
L 1031 3053 
L 481 3053 
L 563 3500 
L 1113 3500 
L 1159 3744 
Q 1278 4363 1576 4613 
Q 1875 4863 2516 4863 
L 3059 4863 
z
" id="DejaVuSans-Oblique-66" transform="scale(0.015625)"/>
       <path d="M 1984 4856 
Q 1566 4138 1362 3434 
Q 1159 2731 1159 2009 
Q 1159 1288 1364 580 
Q 1569 -128 1984 -844 
L 1484 -844 
Q 1016 -109 783 600 
Q 550 1309 550 2009 
Q 550 2706 781 3412 
Q 1013 4119 1484 4856 
L 1984 4856 
z
" id="DejaVuSans-28" transform="scale(0.015625)"/>
       <path d="M 3841 3500 
L 2234 1784 
L 3219 0 
L 2559 0 
L 1819 1388 
L 531 0 
L -166 0 
L 1556 1844 
L 641 3500 
L 1300 3500 
L 1972 2234 
L 3144 3500 
L 3841 3500 
z
" id="DejaVuSans-Oblique-78" transform="scale(0.015625)"/>
       <path d="M 513 4856 
L 1013 4856 
Q 1481 4119 1714 3412 
Q 1947 2706 1947 2009 
Q 1947 1309 1714 600 
Q 1481 -109 1013 -844 
L 513 -844 
Q 928 -128 1133 580 
Q 1338 1288 1338 2009 
Q 1338 2731 1133 3434 
Q 928 4138 513 4856 
z
" id="DejaVuSans-29" transform="scale(0.015625)"/>
       <path d="M 1172 4494 
L 1172 3500 
L 2356 3500 
L 2356 3053 
L 1172 3053 
L 1172 1153 
Q 1172 725 1289 603 
Q 1406 481 1766 481 
L 2356 481 
L 2356 0 
L 1766 0 
Q 1100 0 847 248 
Q 594 497 594 1153 
L 594 3053 
L 172 3053 
L 172 3500 
L 594 3500 
L 594 4494 
L 1172 4494 
z
" id="DejaVuSans-74" transform="scale(0.015625)"/>
      </defs>
      <use transform="translate(0 0.015625)" xlink:href="#DejaVuSans-6d"/>
      <use transform="translate(97.412109 0.015625)" xlink:href="#DejaVuSans-69"/>
      <use transform="translate(125.195312 0.015625)" xlink:href="#DejaVuSans-6e"/>
      <use transform="translate(188.574219 0.015625)" xlink:href="#DejaVuSans-Oblique-66"/>
      <use transform="translate(223.779297 0.015625)" xlink:href="#DejaVuSans-28"/>
      <use transform="translate(262.792969 0.015625)" xlink:href="#DejaVuSans-Oblique-78"/>
      <use transform="translate(321.972656 0.015625)" xlink:href="#DejaVuSans-29"/>
      <use transform="translate(360.986328 0.015625)" xlink:href="#DejaVuSans-20"/>
      <use transform="translate(392.773438 0.015625)" xlink:href="#DejaVuSans-61"/>
      <use transform="translate(454.052734 0.015625)" xlink:href="#DejaVuSans-66"/>
      <use transform="translate(489.257812 0.015625)" xlink:href="#DejaVuSans-74"/>
      <use transform="translate(528.466797 0.015625)" xlink:href="#DejaVuSans-65"/>
      <use transform="translate(589.990234 0.015625)" xlink:href="#DejaVuSans-72"/>
      <use transform="translate(631.103516 0.015625)" xlink:href="#DejaVuSans-20"/>
      <use transform="translate(662.890625 0.015625)" xlink:href="#DejaVuSans-Oblique-6e"/>
      <use transform="translate(726.269531 0.015625)" xlink:href="#DejaVuSans-20"/>
      <use transform="translate(758.056641 0.015625)" xlink:href="#DejaVuSans-63"/>
      <use transform="translate(813.037109 0.015625)" xlink:href="#DejaVuSans-61"/>
      <use transform="translate(874.316406 0.015625)" xlink:href="#DejaVuSans-6c"/>
      <use transform="translate(902.099609 0.015625)" xlink:href="#DejaVuSans-6c"/>
      <use transform="translate(929.882812 0.015625)" xlink:href="#DejaVuSans-73"/>
     </g>
    </g>
   </g>
   <g id="line2d_25">
    <path clip-path="url(#p7e6306a0eb)" d="M 73.832727 53.568 
L 81.501732 53.568 
L 84.058067 166.93404 
L 114.734087 166.93404 
L 117.290422 278.360308 
L 142.853772 278.360308 
L 145.410107 295.488 
L 398.487273 295.488 
L 398.487273 295.488 
" style="fill:none;stroke:#3b528b;stroke-linecap:square;stroke-width:2;"/>
    <defs>
     <path d="M 0 3 
C 0.795609 3 1.55874 2.683901 2.12132 2.12132 
C 2.683901 1.55874 3 0.795609 3 0 
C 3 -0.795609 2.683901 -1.55874 2.12132 -2.12132 
C 1.55874 -2.683901 0.795609 -3 0 -3 
C -0.795609 -3 -1.55874 -2.683901 -2.12132 -2.12132 
C -2.683901 -1.55874 -3 -0.795609 -3 0 
C -3 0.795609 -2.683901 1.55874 -2.12132 2.12132 
C -1.55874 2.683901 -0.795609 3 0 3 
z
" id="md4612dcf2a" style="stroke:#3b528b;"/>
    </defs>
    <g clip-path="url(#p7e6306a0eb)">
     <use style="fill:#3b528b;stroke:#3b528b;" x="73.832727" xlink:href="#md4612dcf2a" y="53.568"/>
     <use style="fill:#3b528b;stroke:#3b528b;" x="76.389062" xlink:href="#md4612dcf2a" y="53.568"/>
     <use style="fill:#3b528b;stroke:#3b528b;" x="78.945397" xlink:href="#md4612dcf2a" y="53.568"/>
     <use style="fill:#3b528b;stroke:#3b528b;" x="81.501732" xlink:href="#md4612dcf2a" y="53.568"/>
     <use style="fill:#3b528b;stroke:#3b528b;" x="84.058067" xlink:href="#md4612dcf2a" y="166.93404"/>
     <use style="fill:#3b528b;stroke:#3b528b;" x="86.614402" xlink:href="#md4612dcf2a" y="166.93404"/>
     <use style="fill:#3b528b;stroke:#3b528b;" x="89.170737" xlink:href="#md4612dcf2a" y="166.93404"/>
     <use style="fill:#3b528b;stroke:#3b528b;" x="91.727072" xlink:href="#md4612dcf2a" y="166.93404"/>
     <use style="fill:#3b528b;stroke:#3b528b;" x="94.283407" xlink:href="#md4612dcf2a" y="166.93404"/>
     <use style="fill:#3b528b;stroke:#3b528b;" x="96.839742" xlink:href="#md4612dcf2a" y="166.93404"/>
     <use style="fill:#3b528b;stroke:#3b528b;" x="99.396077" xlink:href="#md4612dcf2a" y="166.93404"/>
     <use style="fill:#3b528b;stroke:#3b528b;" x="101.952412" xlink:href="#md4612dcf2a" y="166.93404"/>
     <use style="fill:#3b528b;stroke:#3b528b;" x="104.508747" xlink:href="#md4612dcf2a" y="166.93404"/>
     <use style="fill:#3b528b;stroke:#3b528b;" x="107.065082" xlink:href="#md4612dcf2a" y="166.93404"/>
     <use style="fill:#3b528b;stroke:#3b528b;" x="109.621417" xlink:href="#md4612dcf2a" y="166.93404"/>
     <use style="fill:#3b528b;stroke:#3b528b;" x="112.177752" xlink:href="#md4612dcf2a" y="166.93404"/>
     <use style="fill:#3b528b;stroke:#3b528b;" x="114.734087" xlink:href="#md4612dcf2a" y="166.93404"/>
     <use style="fill:#3b528b;stroke:#3b528b;" x="117.290422" xlink:href="#md4612dcf2a" y="278.360308"/>
     <use style="fill:#3b528b;stroke:#3b528b;" x="119.846757" xlink:href="#md4612dcf2a" y="278.360308"/>
     <use style="fill:#3b528b;stroke:#3b528b;" x="122.403092" xlink:href="#md4612dcf2a" y="278.360308"/>
     <use style="fill:#3b528b;stroke:#3b528b;" x="124.959427" xlink:href="#md4612dcf2a" y="278.360308"/>
     <use style="fill:#3b528b;stroke:#3b528b;" x="127.515762" xlink:href="#md4612dcf2a" y="278.360308"/>
     <use style="fill:#3b528b;stroke:#3b528b;" x="130.072097" xlink:href="#md4612dcf2a" y="278.360308"/>
     <use style="fill:#3b528b;stroke:#3b528b;" x="132.628432" xlink:href="#md4612dcf2a" y="278.360308"/>
     <use style="fill:#3b528b;stroke:#3b528b;" x="135.184767" xlink:href="#md4612dcf2a" y="278.360308"/>
     <use style="fill:#3b528b;stroke:#3b528b;" x="137.741102" xlink:href="#md4612dcf2a" y="278.360308"/>
     <use style="fill:#3b528b;stroke:#3b528b;" x="140.297437" xlink:href="#md4612dcf2a" y="278.360308"/>
     <use style="fill:#3b528b;stroke:#3b528b;" x="142.853772" xlink:href="#md4612dcf2a" y="278.360308"/>
     <use style="fill:#3b528b;stroke:#3b528b;" x="145.410107" xlink:href="#md4612dcf2a" y="295.488"/>
     <use style="fill:#3b528b;stroke:#3b528b;" x="147.966442" xlink:href="#md4612dcf2a" y="295.488"/>
     <use style="fill:#3b528b;stroke:#3b528b;" x="150.522777" xlink:href="#md4612dcf2a" y="295.488"/>
     <use style="fill:#3b528b;stroke:#3b528b;" x="153.079112" xlink:href="#md4612dcf2a" y="295.488"/>
     <use style="fill:#3b528b;stroke:#3b528b;" x="155.635447" xlink:href="#md4612dcf2a" y="295.488"/>
     <use style="fill:#3b528b;stroke:#3b528b;" x="158.191782" xlink:href="#md4612dcf2a" y="295.488"/>
     <use style="fill:#3b528b;stroke:#3b528b;" x="160.748117" xlink:href="#md4612dcf2a" y="295.488"/>
     <use style="fill:#3b528b;stroke:#3b528b;" x="163.304452" xlink:href="#md4612dcf2a" y="295.488"/>
     <use style="fill:#3b528b;stroke:#3b528b;" x="165.860787" xlink:href="#md4612dcf2a" y="295.488"/>
     <use style="fill:#3b528b;stroke:#3b528b;" x="168.417122" xlink:href="#md4612dcf2a" y="295.488"/>
     <use style="fill:#3b528b;stroke:#3b528b;" x="170.973457" xlink:href="#md4612dcf2a" y="295.488"/>
     <use style="fill:#3b528b;stroke:#3b528b;" x="173.529792" xlink:href="#md4612dcf2a" y="295.488"/>
     <use style="fill:#3b528b;stroke:#3b528b;" x="176.086127" xlink:href="#md4612dcf2a" y="295.488"/>
     <use style="fill:#3b528b;stroke:#3b528b;" x="178.642462" xlink:href="#md4612dcf2a" y="295.488"/>
     <use style="fill:#3b528b;stroke:#3b528b;" x="181.198797" xlink:href="#md4612dcf2a" y="295.488"/>
     <use style="fill:#3b528b;stroke:#3b528b;" x="183.755132" xlink:href="#md4612dcf2a" y="295.488"/>
     <use style="fill:#3b528b;stroke:#3b528b;" x="186.311467" xlink:href="#md4612dcf2a" y="295.488"/>
     <use style="fill:#3b528b;stroke:#3b528b;" x="188.867802" xlink:href="#md4612dcf2a" y="295.488"/>
     <use style="fill:#3b528b;stroke:#3b528b;" x="191.424137" xlink:href="#md4612dcf2a" y="295.488"/>
     <use style="fill:#3b528b;stroke:#3b528b;" x="193.980472" xlink:href="#md4612dcf2a" y="295.488"/>
     <use style="fill:#3b528b;stroke:#3b528b;" x="196.536807" xlink:href="#md4612dcf2a" y="295.488"/>
     <use style="fill:#3b528b;stroke:#3b528b;" x="199.093142" xlink:href="#md4612dcf2a" y="295.488"/>
     <use style="fill:#3b528b;stroke:#3b528b;" x="201.649477" xlink:href="#md4612dcf2a" y="295.488"/>
     <use style="fill:#3b528b;stroke:#3b528b;" x="204.205812" xlink:href="#md4612dcf2a" y="295.488"/>
     <use style="fill:#3b528b;stroke:#3b528b;" x="206.762147" xlink:href="#md4612dcf2a" y="295.488"/>
     <use style="fill:#3b528b;stroke:#3b528b;" x="209.318482" xlink:href="#md4612dcf2a" y="295.488"/>
     <use style="fill:#3b528b;stroke:#3b528b;" x="211.874817" xlink:href="#md4612dcf2a" y="295.488"/>
     <use style="fill:#3b528b;stroke:#3b528b;" x="214.431152" xlink:href="#md4612dcf2a" y="295.488"/>
     <use style="fill:#3b528b;stroke:#3b528b;" x="216.987487" xlink:href="#md4612dcf2a" y="295.488"/>
     <use style="fill:#3b528b;stroke:#3b528b;" x="219.543822" xlink:href="#md4612dcf2a" y="295.488"/>
     <use style="fill:#3b528b;stroke:#3b528b;" x="222.100157" xlink:href="#md4612dcf2a" y="295.488"/>
     <use style="fill:#3b528b;stroke:#3b528b;" x="224.656492" xlink:href="#md4612dcf2a" y="295.488"/>
     <use style="fill:#3b528b;stroke:#3b528b;" x="227.212827" xlink:href="#md4612dcf2a" y="295.488"/>
     <use style="fill:#3b528b;stroke:#3b528b;" x="229.769162" xlink:href="#md4612dcf2a" y="295.488"/>
     <use style="fill:#3b528b;stroke:#3b528b;" x="232.325497" xlink:href="#md4612dcf2a" y="295.488"/>
     <use style="fill:#3b528b;stroke:#3b528b;" x="234.881832" xlink:href="#md4612dcf2a" y="295.488"/>
     <use style="fill:#3b528b;stroke:#3b528b;" x="237.438168" xlink:href="#md4612dcf2a" y="295.488"/>
     <use style="fill:#3b528b;stroke:#3b528b;" x="239.994503" xlink:href="#md4612dcf2a" y="295.488"/>
     <use style="fill:#3b528b;stroke:#3b528b;" x="242.550838" xlink:href="#md4612dcf2a" y="295.488"/>
     <use style="fill:#3b528b;stroke:#3b528b;" x="245.107173" xlink:href="#md4612dcf2a" y="295.488"/>
     <use style="fill:#3b528b;stroke:#3b528b;" x="247.663508" xlink:href="#md4612dcf2a" y="295.488"/>
     <use style="fill:#3b528b;stroke:#3b528b;" x="250.219843" xlink:href="#md4612dcf2a" y="295.488"/>
     <use style="fill:#3b528b;stroke:#3b528b;" x="252.776178" xlink:href="#md4612dcf2a" y="295.488"/>
     <use style="fill:#3b528b;stroke:#3b528b;" x="255.332513" xlink:href="#md4612dcf2a" y="295.488"/>
     <use style="fill:#3b528b;stroke:#3b528b;" x="257.888848" xlink:href="#md4612dcf2a" y="295.488"/>
     <use style="fill:#3b528b;stroke:#3b528b;" x="260.445183" xlink:href="#md4612dcf2a" y="295.488"/>
     <use style="fill:#3b528b;stroke:#3b528b;" x="263.001518" xlink:href="#md4612dcf2a" y="295.488"/>
     <use style="fill:#3b528b;stroke:#3b528b;" x="265.557853" xlink:href="#md4612dcf2a" y="295.488"/>
     <use style="fill:#3b528b;stroke:#3b528b;" x="268.114188" xlink:href="#md4612dcf2a" y="295.488"/>
     <use style="fill:#3b528b;stroke:#3b528b;" x="270.670523" xlink:href="#md4612dcf2a" y="295.488"/>
     <use style="fill:#3b528b;stroke:#3b528b;" x="273.226858" xlink:href="#md4612dcf2a" y="295.488"/>
     <use style="fill:#3b528b;stroke:#3b528b;" x="275.783193" xlink:href="#md4612dcf2a" y="295.488"/>
     <use style="fill:#3b528b;stroke:#3b528b;" x="278.339528" xlink:href="#md4612dcf2a" y="295.488"/>
     <use style="fill:#3b528b;stroke:#3b528b;" x="280.895863" xlink:href="#md4612dcf2a" y="295.488"/>
     <use style="fill:#3b528b;stroke:#3b528b;" x="283.452198" xlink:href="#md4612dcf2a" y="295.488"/>
     <use style="fill:#3b528b;stroke:#3b528b;" x="286.008533" xlink:href="#md4612dcf2a" y="295.488"/>
     <use style="fill:#3b528b;stroke:#3b528b;" x="288.564868" xlink:href="#md4612dcf2a" y="295.488"/>
     <use style="fill:#3b528b;stroke:#3b528b;" x="291.121203" xlink:href="#md4612dcf2a" y="295.488"/>
     <use style="fill:#3b528b;stroke:#3b528b;" x="293.677538" xlink:href="#md4612dcf2a" y="295.488"/>
     <use style="fill:#3b528b;stroke:#3b528b;" x="296.233873" xlink:href="#md4612dcf2a" y="295.488"/>
     <use style="fill:#3b528b;stroke:#3b528b;" x="298.790208" xlink:href="#md4612dcf2a" y="295.488"/>
     <use style="fill:#3b528b;stroke:#3b528b;" x="301.346543" xlink:href="#md4612dcf2a" y="295.488"/>
     <use style="fill:#3b528b;stroke:#3b528b;" x="303.902878" xlink:href="#md4612dcf2a" y="295.488"/>
     <use style="fill:#3b528b;stroke:#3b528b;" x="306.459213" xlink:href="#md4612dcf2a" y="295.488"/>
     <use style="fill:#3b528b;stroke:#3b528b;" x="309.015548" xlink:href="#md4612dcf2a" y="295.488"/>
     <use style="fill:#3b528b;stroke:#3b528b;" x="311.571883" xlink:href="#md4612dcf2a" y="295.488"/>
     <use style="fill:#3b528b;stroke:#3b528b;" x="314.128218" xlink:href="#md4612dcf2a" y="295.488"/>
     <use style="fill:#3b528b;stroke:#3b528b;" x="316.684553" xlink:href="#md4612dcf2a" y="295.488"/>
     <use style="fill:#3b528b;stroke:#3b528b;" x="319.240888" xlink:href="#md4612dcf2a" y="295.488"/>
     <use style="fill:#3b528b;stroke:#3b528b;" x="321.797223" xlink:href="#md4612dcf2a" y="295.488"/>
     <use style="fill:#3b528b;stroke:#3b528b;" x="324.353558" xlink:href="#md4612dcf2a" y="295.488"/>
     <use style="fill:#3b528b;stroke:#3b528b;" x="326.909893" xlink:href="#md4612dcf2a" y="295.488"/>
     <use style="fill:#3b528b;stroke:#3b528b;" x="329.466228" xlink:href="#md4612dcf2a" y="295.488"/>
     <use style="fill:#3b528b;stroke:#3b528b;" x="332.022563" xlink:href="#md4612dcf2a" y="295.488"/>
     <use style="fill:#3b528b;stroke:#3b528b;" x="334.578898" xlink:href="#md4612dcf2a" y="295.488"/>
     <use style="fill:#3b528b;stroke:#3b528b;" x="337.135233" xlink:href="#md4612dcf2a" y="295.488"/>
     <use style="fill:#3b528b;stroke:#3b528b;" x="339.691568" xlink:href="#md4612dcf2a" y="295.488"/>
     <use style="fill:#3b528b;stroke:#3b528b;" x="342.247903" xlink:href="#md4612dcf2a" y="295.488"/>
     <use style="fill:#3b528b;stroke:#3b528b;" x="344.804238" xlink:href="#md4612dcf2a" y="295.488"/>
     <use style="fill:#3b528b;stroke:#3b528b;" x="347.360573" xlink:href="#md4612dcf2a" y="295.488"/>
     <use style="fill:#3b528b;stroke:#3b528b;" x="349.916908" xlink:href="#md4612dcf2a" y="295.488"/>
     <use style="fill:#3b528b;stroke:#3b528b;" x="352.473243" xlink:href="#md4612dcf2a" y="295.488"/>
     <use style="fill:#3b528b;stroke:#3b528b;" x="355.029578" xlink:href="#md4612dcf2a" y="295.488"/>
     <use style="fill:#3b528b;stroke:#3b528b;" x="357.585913" xlink:href="#md4612dcf2a" y="295.488"/>
     <use style="fill:#3b528b;stroke:#3b528b;" x="360.142248" xlink:href="#md4612dcf2a" y="295.488"/>
     <use style="fill:#3b528b;stroke:#3b528b;" x="362.698583" xlink:href="#md4612dcf2a" y="295.488"/>
     <use style="fill:#3b528b;stroke:#3b528b;" x="365.254918" xlink:href="#md4612dcf2a" y="295.488"/>
     <use style="fill:#3b528b;stroke:#3b528b;" x="367.811253" xlink:href="#md4612dcf2a" y="295.488"/>
     <use style="fill:#3b528b;stroke:#3b528b;" x="370.367588" xlink:href="#md4612dcf2a" y="295.488"/>
     <use style="fill:#3b528b;stroke:#3b528b;" x="372.923923" xlink:href="#md4612dcf2a" y="295.488"/>
     <use style="fill:#3b528b;stroke:#3b528b;" x="375.480258" xlink:href="#md4612dcf2a" y="295.488"/>
     <use style="fill:#3b528b;stroke:#3b528b;" x="378.036593" xlink:href="#md4612dcf2a" y="295.488"/>
     <use style="fill:#3b528b;stroke:#3b528b;" x="380.592928" xlink:href="#md4612dcf2a" y="295.488"/>
     <use style="fill:#3b528b;stroke:#3b528b;" x="383.149263" xlink:href="#md4612dcf2a" y="295.488"/>
     <use style="fill:#3b528b;stroke:#3b528b;" x="385.705598" xlink:href="#md4612dcf2a" y="295.488"/>
     <use style="fill:#3b528b;stroke:#3b528b;" x="388.261933" xlink:href="#md4612dcf2a" y="295.488"/>
     <use style="fill:#3b528b;stroke:#3b528b;" x="390.818268" xlink:href="#md4612dcf2a" y="295.488"/>
     <use style="fill:#3b528b;stroke:#3b528b;" x="393.374603" xlink:href="#md4612dcf2a" y="295.488"/>
     <use style="fill:#3b528b;stroke:#3b528b;" x="395.930938" xlink:href="#md4612dcf2a" y="295.488"/>
     <use style="fill:#3b528b;stroke:#3b528b;" x="398.487273" xlink:href="#md4612dcf2a" y="295.488"/>
    </g>
   </g>
   <g id="patch_3">
    <path d="M 57.6 307.584 
L 57.6 41.472 
" style="fill:none;stroke:#000000;stroke-linecap:square;stroke-linejoin:miter;stroke-width:0.8;"/>
   </g>
   <g id="patch_4">
    <path d="M 414.72 307.584 
L 414.72 41.472 
" style="fill:none;stroke:#000000;stroke-linecap:square;stroke-linejoin:miter;stroke-width:0.8;"/>
   </g>
   <g id="patch_5">
    <path d="M 57.6 307.584 
L 414.72 307.584 
" style="fill:none;stroke:#000000;stroke-linecap:square;stroke-linejoin:miter;stroke-width:0.8;"/>
   </g>
   <g id="patch_6">
    <path d="M 57.6 41.472 
L 414.72 41.472 
" style="fill:none;stroke:#000000;stroke-linecap:square;stroke-linejoin:miter;stroke-width:0.8;"/>
   </g>
   <g id="text_15">
    <!-- Convergence plot -->
    <g transform="translate(183.19125 35.472)scale(0.12 -0.12)">
     <defs>
      <path d="M 4122 4306 
L 4122 3641 
Q 3803 3938 3442 4084 
Q 3081 4231 2675 4231 
Q 1875 4231 1450 3742 
Q 1025 3253 1025 2328 
Q 1025 1406 1450 917 
Q 1875 428 2675 428 
Q 3081 428 3442 575 
Q 3803 722 4122 1019 
L 4122 359 
Q 3791 134 3420 21 
Q 3050 -91 2638 -91 
Q 1578 -91 968 557 
Q 359 1206 359 2328 
Q 359 3453 968 4101 
Q 1578 4750 2638 4750 
Q 3056 4750 3426 4639 
Q 3797 4528 4122 4306 
z
" id="DejaVuSans-43" transform="scale(0.015625)"/>
      <path d="M 191 3500 
L 800 3500 
L 1894 563 
L 2988 3500 
L 3597 3500 
L 2284 0 
L 1503 0 
L 191 3500 
z
" id="DejaVuSans-76" transform="scale(0.015625)"/>
      <path d="M 2906 1791 
Q 2906 2416 2648 2759 
Q 2391 3103 1925 3103 
Q 1463 3103 1205 2759 
Q 947 2416 947 1791 
Q 947 1169 1205 825 
Q 1463 481 1925 481 
Q 2391 481 2648 825 
Q 2906 1169 2906 1791 
z
M 3481 434 
Q 3481 -459 3084 -895 
Q 2688 -1331 1869 -1331 
Q 1566 -1331 1297 -1286 
Q 1028 -1241 775 -1147 
L 775 -588 
Q 1028 -725 1275 -790 
Q 1522 -856 1778 -856 
Q 2344 -856 2625 -561 
Q 2906 -266 2906 331 
L 2906 616 
Q 2728 306 2450 153 
Q 2172 0 1784 0 
Q 1141 0 747 490 
Q 353 981 353 1791 
Q 353 2603 747 3093 
Q 1141 3584 1784 3584 
Q 2172 3584 2450 3431 
Q 2728 3278 2906 2969 
L 2906 3500 
L 3481 3500 
L 3481 434 
z
" id="DejaVuSans-67" transform="scale(0.015625)"/>
      <path d="M 1159 525 
L 1159 -1331 
L 581 -1331 
L 581 3500 
L 1159 3500 
L 1159 2969 
Q 1341 3281 1617 3432 
Q 1894 3584 2278 3584 
Q 2916 3584 3314 3078 
Q 3713 2572 3713 1747 
Q 3713 922 3314 415 
Q 2916 -91 2278 -91 
Q 1894 -91 1617 61 
Q 1341 213 1159 525 
z
M 3116 1747 
Q 3116 2381 2855 2742 
Q 2594 3103 2138 3103 
Q 1681 3103 1420 2742 
Q 1159 2381 1159 1747 
Q 1159 1113 1420 752 
Q 1681 391 2138 391 
Q 2594 391 2855 752 
Q 3116 1113 3116 1747 
z
" id="DejaVuSans-70" transform="scale(0.015625)"/>
     </defs>
     <use xlink:href="#DejaVuSans-43"/>
     <use x="69.824219" xlink:href="#DejaVuSans-6f"/>
     <use x="131.005859" xlink:href="#DejaVuSans-6e"/>
     <use x="194.384766" xlink:href="#DejaVuSans-76"/>
     <use x="253.564453" xlink:href="#DejaVuSans-65"/>
     <use x="315.087891" xlink:href="#DejaVuSans-72"/>
     <use x="354.451172" xlink:href="#DejaVuSans-67"/>
     <use x="417.927734" xlink:href="#DejaVuSans-65"/>
     <use x="479.451172" xlink:href="#DejaVuSans-6e"/>
     <use x="542.830078" xlink:href="#DejaVuSans-63"/>
     <use x="597.810547" xlink:href="#DejaVuSans-65"/>
     <use x="659.333984" xlink:href="#DejaVuSans-20"/>
     <use x="691.121094" xlink:href="#DejaVuSans-70"/>
     <use x="754.597656" xlink:href="#DejaVuSans-6c"/>
     <use x="782.380859" xlink:href="#DejaVuSans-6f"/>
     <use x="843.5625" xlink:href="#DejaVuSans-74"/>
    </g>
   </g>
  </g>
 </g>
 <defs>
  <clipPath id="p7e6306a0eb">
   <rect height="266.112" width="357.12" x="57.6" y="41.472"/>
  </clipPath>
 </defs>
</svg>
